<svg xmlns="http://www.w3.org/2000/svg">
<symbol viewBox="0 0 254.036 254.036" id="git"><desc>Created with Fabric.js 1.7.22</desc><defs/><g transform="translate(128 128) scale(0.72 0.72)" style=""><g style="stroke: none; stroke-width: 0; stroke-dasharray: none; stroke-linecap: butt; stroke-linejoin: miter; stroke-miterlimit: 10; fill: none; fill-rule: nonzero; opacity: 1;" transform="translate(-175.05 -175.05000000000004) scale(3.89 3.89)"><path d="M 45 0 c -5.019 30.769 -5.291 60.811 0 90 c 24.853 0 45 -20.147 45 -45 C 90 20.147 69.853 0 45 0 z" style="stroke: none; stroke-width: 1; stroke-dasharray: none; stroke-linecap: butt; stroke-linejoin: miter; stroke-miterlimit: 10; fill: rgb(36, 41, 46); fill-rule: nonzero; opacity: 1;" transform=" matrix(1 0 0 1 0 0) " stroke-linecap="round"/><path d="M 45 0 v 90 C 20.147 90 0 69.853 0 45 C 0 20.147 20.147 0 45 0 z" style="stroke: none; stroke-width: 1; stroke-dasharray: none; stroke-linecap: butt; stroke-linejoin: miter; stroke-miterlimit: 10; fill: rgb(53, 60, 68); fill-rule: nonzero; opacity: 1;" transform=" matrix(1 0 0 1 0 0) " stroke-linecap="round"/><path d="M 72.875 39.44 c 0 -4.731 -1.681 -8.597 -4.46 -11.631 c 0.45 -1.092 1.933 -5.499 -0.425 -11.468 c 0 0 -3.633 -1.164 -11.905 4.443 c -3.463 -0.96 -7.173 -1.442 -10.856 -1.459 c -0.076 0 -0.153 0.008 -0.229 0.008 C 42.149 43.866 41.889 67.511 45 90 c 3.792 0 7.471 -0.474 10.989 -1.357 c 0.015 -5.485 0.038 -15.83 0.038 -19.797 c 0 -4.043 -1.385 -6.68 -2.939 -8.025 C 62.737 59.748 72.875 56.084 72.875 39.44 z" style="stroke: none; stroke-width: 1; stroke-dasharray: none; stroke-linecap: butt; stroke-linejoin: miter; stroke-miterlimit: 10; fill: rgb(203, 210, 217); fill-rule: nonzero; opacity: 1;" transform=" matrix(1 0 0 1 0 0) " stroke-linecap="round"/><path d="M 45 19.333 c -3.607 0.035 -7.232 0.51 -10.617 1.45 c -8.28 -5.607 -11.919 -4.443 -11.919 -4.443 c -2.353 5.969 -0.87 10.376 -0.42 11.468 c -2.772 3.035 -4.465 6.9 -4.465 11.631 c 0 16.604 10.118 20.32 19.743 21.415 c -1.24 1.082 -2.362 2.994 -2.751 5.795 c -2.473 1.107 -8.746 3.022 -12.61 -3.602 c 0 0 -2.292 -4.161 -6.643 -4.466 c 0 0 -4.228 -0.055 -0.296 2.634 c 0 0 2.84 1.332 4.811 6.341 c 0 0 2.544 7.734 14.599 5.113 c 0.012 2.331 0.033 11.162 0.046 16.081 C 37.855 89.56 41.375 90 45 90 V 19.333 z" style="stroke: none; stroke-width: 1; stroke-dasharray: none; stroke-linecap: butt; stroke-linejoin: miter; stroke-miterlimit: 10; fill: rgb(215, 222, 230); fill-rule: nonzero; opacity: 1;" transform=" matrix(1 0 0 1 0 0) " stroke-linecap="round"/></g></g></symbol>
<symbol viewBox="0 0 254.036 254.036" id="in"><desc>Created with Fabric.js 1.7.22</desc><defs/><g transform="translate(128 128) scale(0.72 0.72)" style=""><g style="stroke: none; stroke-width: 0; stroke-dasharray: none; stroke-linecap: butt; stroke-linejoin: miter; stroke-miterlimit: 10; fill: none; fill-rule: nonzero; opacity: 1;" transform="translate(-175.05 -175.05000000000004) scale(3.89 3.89)"><path d="M 45 0 C 20.147 0 0 20.147 0 45 c 0 24.853 20.147 45 45 45 c 24.853 0 45 -20.147 45 -45 C 90 20.147 69.853 0 45 0 z M 31.187 69.956 H 20.822 V 36.617 h 10.365 V 69.956 z M 26.005 32.062 c -3.32 0 -6.005 -2.692 -6.005 -6.007 c 0 -3.318 2.685 -6.011 6.005 -6.011 c 3.313 0 6.005 2.692 6.005 6.011 C 32.01 29.37 29.317 32.062 26.005 32.062 z M 70 69.956 H 59.643 V 53.743 c 0 -3.867 -0.067 -8.84 -5.385 -8.84 c -5.392 0 -6.215 4.215 -6.215 8.562 v 16.491 H 37.686 V 36.617 h 9.939 v 4.559 h 0.141 c 1.383 -2.622 4.764 -5.385 9.804 -5.385 C 68.063 35.791 70 42.694 70 51.671 V 69.956 z" style="stroke: none; stroke-width: 1; stroke-dasharray: none; stroke-linecap: butt; stroke-linejoin: miter; stroke-miterlimit: 10; fill: rgb(0, 0, 0); fill-rule: nonzero; opacity: 1;" transform=" matrix(1 0 0 1 0 0) " stroke-linecap="round"/></g></g></symbol>
<symbol viewBox="0 0 254.036 219.5824" id="mail"><desc>Created with Fabric.js 1.7.22</desc><defs/><g transform="translate(128 128) scale(0.72 0.72)" style=""><g style="stroke: none; stroke-width: 0; stroke-dasharray: none; stroke-linecap: butt; stroke-linejoin: miter; stroke-miterlimit: 10; fill: none; fill-rule: nonzero; opacity: 1;" transform="translate(-175.05 -175.05000000000004) scale(3.89 3.89)"><path d="M 45 51.815 l 45 -33.87 v -1.967 c 0 -2.03 -1.646 -3.676 -3.676 -3.676 H 3.676 C 1.646 12.302 0 13.948 0 15.978 v 1.967 L 45 51.815 z" style="stroke: none; stroke-width: 1; stroke-dasharray: none; stroke-linecap: butt; stroke-linejoin: miter; stroke-miterlimit: 10; fill: rgb(0, 0, 0); fill-rule: nonzero; opacity: 1;" transform=" matrix(1 0 0 1 0 0) " stroke-linecap="round"/><path d="M 47.405 60.019 c -0.712 0.536 -1.559 0.804 -2.405 0.804 s -1.693 -0.268 -2.405 -0.804 L 0 27.958 v 46.064 c 0 2.03 1.646 3.676 3.676 3.676 h 82.648 c 2.03 0 3.676 -1.646 3.676 -3.676 V 27.958 L 47.405 60.019 z" style="stroke: none; stroke-width: 1; stroke-dasharray: none; stroke-linecap: butt; stroke-linejoin: miter; stroke-miterlimit: 10; fill: rgb(0, 0, 0); fill-rule: nonzero; opacity: 1;" transform=" matrix(1 0 0 1 0 0) " stroke-linecap="round"/></g></g></symbol>
<symbol viewBox="0 0 254.04224 254.03532" id="tel"><desc>Created with Fabric.js 1.7.22</desc><defs/><g transform="translate(128 128) scale(0.72 0.72)" style=""><g style="stroke: none; stroke-width: 0; stroke-dasharray: none; stroke-linecap: butt; stroke-linejoin: miter; stroke-miterlimit: 10; fill: none; fill-rule: nonzero; opacity: 1;" transform="translate(-175.05 -175.05000000000004) scale(3.89 3.89)"><path d="M 38.789 51.211 l 10.876 10.876 c 0.974 0.974 2.471 1.194 3.684 0.543 l 13.034 -6.997 c 0.964 -0.518 2.129 -0.493 3.07 0.066 l 19.017 11.285 c 1.357 0.805 1.903 2.489 1.268 3.933 c -1.625 3.698 -4.583 10.476 -5.758 13.473 c -0.247 0.631 -0.615 1.209 -1.127 1.652 c -12.674 10.986 -37.89 -2.4 -57.191 -21.701 C 6.358 45.039 -7.028 19.823 3.958 7.149 c 0.444 -0.512 1.022 -0.88 1.652 -1.127 c 2.996 -1.175 9.775 -4.133 13.473 -5.758 c 1.444 -0.635 3.128 -0.089 3.933 1.268 l 11.285 19.017 c 0.558 0.941 0.583 2.106 0.066 3.07 L 27.37 36.651 c -0.651 1.213 -0.431 2.71 0.543 3.684 C 27.913 40.335 38.789 51.211 38.789 51.211 z" style="stroke: none; stroke-width: 1; stroke-dasharray: none; stroke-linecap: butt; stroke-linejoin: miter; stroke-miterlimit: 10; fill: rgb(0, 0, 0); fill-rule: nonzero; opacity: 1;" transform=" matrix(1 0 0 1 0 0) " stroke-linecap="round"/></g></g></symbol>
</svg>